<svg xmlns="http://www.w3.org/2000/svg" xmlns:xlink="http://www.w3.org/1999/xlink" width="260" height="204"><defs><path id="a" d="M0 0h256v200H0z"/></defs><g fill="none" fill-rule="evenodd" transform="translate(2 2)"><mask id="b" fill="#fff"><use xlink:href="#a"/></mask><path stroke="#E9E9E9" stroke-width="1.5" d="M-.75-.75h257.5v201.5H-.75z"/><g fill="#DBDBDB" fill-rule="nonzero" mask="url(#b)"><path d="M166.672 130.766v-5.157h-20.625v5.157h-36.094v-5.157H89.328v5.157H84V144h88v-13.234h-5.328M89.328 110.14h77.344v10.312H89.328v-10.312m23.203-38.672h-7.734v-5.156h26.256c1.068 2.994 3.903 5.156 7.26 5.156h10.312c4.265 0 7.734-3.47 7.734-7.735 0-4.264-3.47-7.734-7.734-7.734h-10.312c-3.357 0-6.192 2.162-7.26 5.156H99.64V71.47h-5.157v33.515h18.047V71.47m5.156 0v30.937h7.735V97.25h5.156v-5.156h-5.156V81.78h5.156v-5.156h-5.156v-5.156h-7.734M84 76.625h5.328V97.25H84zm62.047 0v7.734h-10.313v5.157h10.313v15.468h20.625V93.59l-5.156-5.156V76.625h-15.47"/></g></g></svg>